<svg width="1033" height="649" viewBox="0 0 1033 649" fill="none" xmlns="http://www.w3.org/2000/svg">
<g clip-path="url(#clip0_329_2)">
<path d="M213.383 516.399C207.633 528.139 201.533 538.669 194.033 549.129C186.183 560.079 175.973 569.819 164.803 577.759C153.263 585.959 140.113 591.739 126.353 594.949C110.583 598.639 94.6028 597.489 80.0228 593.669C69.3028 590.869 57.9928 586.059 48.7128 578.919C40.7628 572.809 32.5028 563.959 27.0128 555.559C21.5328 547.179 16.5728 536.429 13.8028 526.769C11.0328 517.089 9.0028 506.029 8.2928 495.949C7.6128 486.359 7.7828 475.829 9.0328 466.229C10.2728 456.749 12.0228 447.859 14.6428 440.269C18.6828 428.529 23.6828 417.069 29.5528 406.259C35.9328 394.499 43.5828 383.179 51.7628 372.339C59.9428 361.499 69.6128 351.359 79.7828 342.119C89.6928 333.109 100.713 325.269 112.573 319.019C124.013 312.989 136.353 308.679 149.063 306.359C162.303 303.929 176.003 304.699 189.063 307.779C197.953 309.869 205.883 313.389 212.843 318.409C219.803 323.439 225.573 329.309 230.143 336.089C234.713 342.859 237.913 350.449 239.713 358.839C241.513 367.239 241.653 375.709 240.053 384.239C239.803 385.589 239.673 386.269 239.413 387.629C238.563 392.149 237.313 397.689 235.653 404.259C233.993 410.829 231.503 416.929 228.163 422.519C224.813 428.119 220.503 432.689 215.203 436.189C209.903 439.699 203.193 440.629 195.153 438.939C185.433 436.899 178.523 433.269 174.453 428.169C170.383 423.069 169.433 415.909 171.553 406.699C172.353 403.219 173.293 399.769 174.363 396.339C175.433 392.919 176.363 389.469 177.163 385.979C178.363 380.759 178.353 376.489 177.153 373.209C175.953 369.919 172.433 367.599 166.603 366.199C159.973 364.609 153.533 365.129 147.233 367.749C140.923 370.369 134.923 374.359 129.223 379.729C123.523 385.099 118.083 391.439 112.903 398.769C107.723 406.099 103.023 413.619 98.8328 421.329C94.6428 429.049 91.0528 436.599 88.1028 443.989C85.1528 451.379 82.9128 457.789 81.4028 463.189C80.1728 467.619 79.0328 472.809 78.0028 478.739C76.9728 484.679 76.6528 490.559 77.0728 496.359C77.4928 502.169 79.0928 507.439 81.8828 512.159C84.6728 516.869 89.3828 519.939 95.3228 521.659C103.323 523.979 115.273 523.779 122.893 519.719C130.513 515.649 136.733 509.599 141.103 501.439C137.173 499.989 133.393 498.239 129.773 496.169C126.153 494.109 122.953 491.599 120.183 488.679C117.413 485.749 115.413 482.479 114.213 478.879C113.003 475.279 112.953 471.379 114.033 467.169C116.003 459.509 120.513 454.279 127.483 451.429C134.453 448.579 142.183 446.989 150.673 446.649C159.163 446.299 167.653 446.739 176.173 447.969C184.683 449.199 191.463 450.299 196.503 451.349C200.133 452.099 205.403 453.449 212.313 455.329C219.213 457.209 225.963 459.599 232.563 462.499C239.153 465.399 244.743 468.779 249.313 472.669C253.893 476.559 255.803 480.889 255.003 485.669C253.403 495.239 248.913 502.989 241.973 508.899C234.913 514.899 222.463 517.659 213.423 516.379L213.383 516.399Z" fill="white"/>
<path d="M471.913 579.967C471.803 585.027 471.043 591.187 469.753 598.287C468.463 605.397 466.173 612.167 462.873 618.557C459.563 624.957 455.173 630.287 449.713 634.527C444.243 638.767 436.803 640.357 428.383 640.207C419.993 640.057 408.223 635.567 403.153 628.297C398.103 621.057 394.483 612.437 392.723 602.777C391.003 593.317 390.293 582.847 390.673 573.237C391.063 563.337 391.253 555.357 391.423 549.477C370.133 550.677 348.893 551.287 327.563 551.287C326.283 557.057 324.173 564.137 321.193 572.507C318.213 580.897 314.193 588.827 309.083 596.297C303.973 603.767 297.723 609.977 290.333 614.907C282.933 619.837 274.393 621.617 264.823 620.197C257.413 619.097 251.963 615.977 248.513 610.917C245.063 605.847 242.773 600.097 241.643 593.707C240.503 587.317 240.263 580.867 240.873 574.367C241.493 567.867 242.163 562.487 242.873 558.197C245.253 543.947 248.963 529.927 253.893 516.357C258.813 502.787 264.203 489.307 269.693 476.047C272.583 469.067 276.193 460.777 280.473 451.377C284.943 441.577 289.903 431.737 295.243 422.437C300.943 412.487 307.003 402.517 313.533 393.337C319.803 384.517 327.073 375.777 334.963 368.177C341.813 361.577 351.233 355.117 359.773 351.077C367.813 347.277 379.423 345.317 388.303 346.287C398.003 347.347 406.583 350.057 413.583 354.927C420.573 359.797 426.613 366.037 431.743 373.437C436.903 380.867 441.393 390.027 444.373 398.517C447.533 407.537 450.433 417.157 452.583 426.527C454.673 435.617 456.553 444.927 458.013 454.177C459.433 463.177 460.743 471.157 461.903 478.097C464.833 494.947 467.633 511.997 469.573 528.757C471.533 545.647 472.303 562.927 471.943 579.977L471.913 579.967ZM392.453 482.327C392.703 479.277 392.903 474.237 393.053 467.197C393.203 460.167 392.873 453.097 392.073 445.987C391.273 438.877 389.663 432.467 387.273 426.737C384.873 421.017 381.243 417.937 376.343 417.467C373.613 417.207 370.863 418.667 368.053 421.847C365.243 425.027 362.603 429.127 360.133 434.117C357.653 439.117 355.303 444.717 353.083 450.887C350.863 457.067 348.853 463.017 347.083 468.717C345.313 474.427 343.863 479.597 342.763 484.227C341.663 488.857 340.853 492.167 340.343 494.167C357.473 494.607 374.433 494.367 391.543 493.397C391.903 488.967 392.083 486.757 392.453 482.327Z" fill="white"/>
<path d="M672.022 368.669C672.652 375.019 670.632 381.069 665.912 386.759C661.192 392.449 655.272 397.599 648.172 402.139C641.062 406.689 633.642 410.499 625.932 413.559C618.212 416.619 611.772 418.789 606.642 420.079C605.582 439.729 604.732 459.479 604.442 479.049C604.152 498.569 604.532 518.269 605.382 537.849C605.832 548.149 606.642 558.529 607.782 568.789C608.912 578.919 609.702 589.169 610.192 599.339C610.412 603.919 610.142 608.999 609.332 614.529C608.522 620.059 606.912 625.319 604.502 630.279C602.092 635.249 598.612 639.489 594.062 642.989C589.512 646.489 583.762 648.359 576.882 648.559C568.742 648.799 562.192 647.079 557.292 643.479C552.382 639.869 548.582 635.379 545.892 630.059C543.192 624.729 541.362 619.069 540.392 613.079C539.422 607.089 539.002 601.579 538.872 596.819C538.462 581.719 537.562 566.039 537.162 550.689C536.752 535.219 536.502 519.649 536.382 504.169C536.282 491.429 536.292 478.639 536.312 465.879C536.332 453.119 536.312 440.349 536.232 427.589C532.392 428.129 528.482 428.529 524.512 428.779C520.532 429.029 516.482 429.149 512.372 429.119C509.082 429.089 504.752 428.729 499.422 428.009C494.092 427.289 488.962 426.029 484.092 424.239C479.212 422.449 475.052 420.029 471.612 416.969C468.182 413.919 466.552 410.079 466.732 405.489C467.022 397.839 470.502 391.269 476.892 385.729C483.702 379.809 492.912 374.719 501.142 371.359C511.452 367.149 522.462 363.609 533.182 360.799C544.402 357.859 556.072 355.439 567.612 353.309C577.872 351.409 588.352 349.789 598.752 348.429C608.202 347.189 615.522 346.349 620.722 346.009C625.662 345.689 630.932 345.509 636.552 345.469C642.162 345.429 647.512 346.079 652.612 347.429C657.702 348.779 662.062 351.069 665.662 354.319C669.262 357.559 671.402 362.359 672.022 368.709V368.669Z" fill="white"/>
<path d="M781.615 631.418C764.895 633.848 747.485 632.878 730.765 626.338C716.175 620.628 703.225 610.607 693.085 598.807C682.215 586.167 674.525 570.698 669.055 555.058C662.945 537.598 659.755 519.138 658.125 501.028C656.495 482.898 657.645 464.298 660.145 446.288C662.555 428.888 667.455 411.068 675.025 394.918C681.905 380.248 691.225 366.178 703.295 355.228C715.325 344.308 731.015 337.158 747.045 334.968C762.005 332.928 778.645 333.888 792.255 341.198C805.515 348.318 817.735 358.388 826.865 370.428C837.075 383.898 845.895 398.958 852.035 414.688C858.585 431.478 864.305 448.778 868.035 466.088C871.975 484.398 873.835 503.578 873.125 522.748C872.495 539.908 868.455 557.268 861.605 572.988C855.075 587.968 844.105 601.167 831.455 611.357C817.105 622.907 798.755 628.918 781.625 631.408L781.615 631.418ZM755.655 419.258C750.455 420.038 746.295 422.568 743.115 426.878C739.945 431.188 737.525 436.608 735.855 443.148C734.195 449.688 733.285 456.888 733.175 464.748C733.065 472.618 733.505 480.478 734.525 488.318C735.675 497.188 737.465 505.958 739.935 514.648C742.405 523.338 745.425 531.058 749.025 537.778C752.625 544.508 756.745 549.738 761.355 553.478C765.965 557.208 771.125 558.658 776.785 557.818C783.335 556.838 788.125 553.248 791.095 547.088C794.055 540.938 795.995 533.758 796.895 525.588C797.805 517.418 797.905 509.118 797.235 500.688C796.565 492.258 795.755 485.278 794.825 479.738C793.685 472.938 791.985 465.848 789.735 458.458C787.495 451.068 784.725 444.348 781.455 438.288C778.185 432.228 774.425 427.338 770.185 423.618C765.945 419.898 761.105 418.448 755.645 419.268L755.655 419.258Z" fill="white"/>
<path d="M987.32 295.338C989.14 300.928 988.87 306.388 986.47 311.708C984.07 317.038 980.5 321.858 976.35 326.148C972.52 330.108 968.58 334.618 964.53 339.158C960.48 343.708 956.9 348.478 953.78 353.498C950.66 358.528 948.42 363.738 947.08 369.158C945.73 374.578 945.86 380.238 947.51 386.138C948.95 391.298 951.61 395.598 955.5 399.008C959.39 402.418 963.9 405.578 969.04 408.478C974.17 411.378 979.79 414.258 985.88 417.098C991.97 419.938 997.84 423.368 1003.47 427.378C1009.1 431.388 1014.36 436.228 1019.23 441.928C1024.1 447.618 1027.95 454.838 1030.73 463.588C1032.66 469.668 1033.36 477.018 1032.75 485.638C1032.14 494.258 1030.37 503.318 1027.57 512.708C1024.7 522.318 1020.34 532.328 1015.61 541.088C1010.72 550.128 1004.43 559.538 997.91 567.468C991.65 575.078 983.43 582.778 975.56 588.598C968.55 593.778 958.93 598.708 950.32 600.748C940.87 602.988 931.84 602.978 923.51 600.448C915.18 597.918 910.1 592.368 908.2 583.898C906.92 578.168 907.4 572.498 909.6 566.898C911.8 561.298 914.77 555.698 918.48 550.108C922.19 544.518 926.41 538.918 931.13 533.298C935.84 527.678 940 522.168 943.6 516.768C947.2 511.378 949.98 505.968 951.97 500.558C953.95 495.158 954.24 489.858 952.86 484.678C950.96 477.528 946.07 470.978 938.32 464.938C930.13 458.558 921.71 452.338 913.21 446.408C904.55 440.378 895.98 433.118 888.32 426.198C882.05 420.538 875.34 410.748 873.96 402.398C871.86 389.678 872.62 379.178 875.4 366.498C878.24 353.528 883.97 340.418 890.71 328.498C897.42 316.638 905.75 305.008 915.43 296.068C925.13 287.108 934.03 281.148 946.29 276.848C954.52 273.958 963.31 274.448 971.2 277.568C979.08 280.688 984.5 286.568 987.34 295.308L987.32 295.338Z" fill="white"/>
<path d="M315.751 413.967C314.951 415.897 316.341 413.897 316.811 413.247C325.251 402.677 346.561 368.917 366.261 368.267C369.301 367.937 372.631 367.077 374.131 364.447C375.461 362.087 375.351 358.757 373.351 358.147C349.561 355.687 325.851 390.497 315.801 413.847L315.751 413.967Z" fill="white"/>
<path d="M90.779 351.668C89.319 353.298 91.469 351.718 92.149 351.248C103.789 343.948 134.749 319.468 153.259 325.568C156.209 326.298 159.609 326.618 161.889 324.638C163.939 322.808 164.939 319.708 163.279 318.388C141.859 307.858 107.909 333.018 90.869 351.578L90.789 351.668H90.779Z" fill="white"/>
<path d="M678.29 425.928C677.89 427.978 678.86 425.738 679.19 425.018C685.4 413.008 699.81 375.718 719.11 371.228C722.04 370.308 725.17 368.808 726.14 365.928C726.98 363.308 726.22 360.158 724.1 359.928C700.15 362.218 683.62 400.728 678.32 425.798L678.3 425.918L678.29 425.928Z" fill="white"/>
<path d="M893.673 370.469C893.273 372.519 894.243 370.279 894.573 369.559C900.783 357.549 915.193 320.259 934.493 315.769C937.423 314.849 940.553 313.349 941.523 310.469C942.363 307.849 941.603 304.699 939.483 304.469C915.533 306.759 899.003 345.269 893.703 370.339L893.683 370.459L893.673 370.469Z" fill="white"/>
<path d="M477.012 411.608C476.892 411.868 476.772 412.028 476.802 412.208C476.932 412.408 478.802 410.218 481.372 407.448C487.882 400.488 499.302 388.748 508.692 384.258C513.792 381.398 519.902 383.548 523.872 379.498C525.262 377.748 525.312 375.559 523.462 375.059C506.022 372.069 485.522 396.388 477.072 411.508L477.022 411.608H477.012Z" fill="white"/>
<path d="M291.599 101.728C292.189 105.338 292.289 109.208 291.939 113.358C291.579 117.508 290.569 121.478 288.929 125.258C287.289 129.048 284.899 132.378 281.779 135.278C278.659 138.178 274.599 140.088 269.569 141.048C261.899 142.508 255.989 142.498 251.779 140.928C247.559 139.358 244.289 136.958 241.969 133.728C239.649 130.498 237.979 126.878 236.979 122.868C235.979 118.858 234.979 115.088 233.969 111.578C232.959 108.068 231.569 105.268 229.799 103.198C228.029 101.128 225.079 100.558 220.979 101.498C216.419 102.548 212.749 104.858 210.009 108.388C207.269 111.918 205.199 116.148 203.809 121.058C202.419 125.968 201.599 131.338 201.339 137.158C201.079 142.988 201.159 148.668 201.569 154.228C201.979 159.788 202.609 164.988 203.429 169.838C204.249 174.688 205.069 178.608 205.849 181.578C206.879 185.478 208.269 190.088 210.009 195.388C211.749 200.698 214.089 205.598 217.019 210.088C219.939 214.588 223.469 218.148 227.569 220.768C231.669 223.398 236.719 223.968 242.769 222.538C246.799 221.588 250.629 220.208 254.269 218.418C257.899 216.618 261.529 214.708 265.139 212.668C268.749 210.638 272.459 208.748 276.259 207.018C280.059 205.288 284.029 204.048 288.139 203.288C292.859 202.418 297.089 203.488 300.749 206.468C304.419 209.448 306.589 213.138 307.309 217.498C308.319 223.568 307.229 229.538 304.169 235.428C301.099 241.328 297.059 246.778 292.069 251.828C287.069 256.888 281.519 261.218 275.359 264.878C269.209 268.538 263.469 270.978 258.159 272.238C245.989 275.118 232.989 275.648 220.889 272.028C209.809 268.718 199.029 263.118 190.669 255.568C181.469 247.258 173.909 238.458 167.549 228.048C161.239 217.728 156.259 206.378 152.199 194.678C149.599 187.208 147.849 178.268 146.579 168.618C145.299 158.878 145.059 148.248 145.649 138.508C146.259 128.368 148.259 117.178 151.049 107.458C153.809 97.8279 158.779 87.0679 164.309 78.7279C169.869 70.3379 178.349 61.5579 186.389 55.5679C195.749 48.6079 207.179 43.9179 217.819 41.6179C227.409 39.5479 238.679 38.7579 248.849 42.4179C257.579 45.5679 265.079 50.2379 271.059 56.5079C277.039 62.7779 281.629 70.0079 284.889 78.1379C288.149 86.2679 290.359 94.1379 291.589 101.728H291.599Z" fill="white"/>
<path d="M476.992 192.188C476.982 195.988 476.492 200.648 475.702 206.008C474.912 211.378 473.472 216.498 471.412 221.378C469.352 226.258 466.632 230.378 463.272 233.728C459.902 237.088 455.482 238.778 449.982 238.848C442.702 238.938 437.192 236.498 433.362 231.428C429.532 226.358 426.642 220.258 424.742 213.128C422.832 205.988 421.542 198.688 420.912 191.208C420.282 183.728 419.762 177.788 419.362 173.378C404.562 176.318 389.772 179.308 375.002 182.408C374.972 186.848 374.582 192.388 373.852 199.018C373.122 205.648 371.672 212.108 369.552 218.408C367.432 224.708 364.472 230.268 360.712 235.138C356.942 240.008 352.062 242.798 345.982 243.578C341.272 244.178 337.382 243.018 334.252 240.058C331.122 237.108 328.522 233.448 326.452 229.088C324.382 224.728 322.822 220.158 321.792 215.348C320.762 210.548 320.012 206.518 319.512 203.298C317.872 192.798 317.172 181.398 317.542 170.798C317.922 160.048 318.692 148.968 319.782 138.288C320.362 132.638 321.182 125.858 322.412 118.128C323.642 110.398 325.392 102.358 327.692 94.0276C330.002 85.6976 332.962 77.3876 336.632 69.1176C340.292 60.8576 344.802 53.3476 350.152 46.6176C355.492 39.8976 361.902 34.2676 369.342 29.7976C376.772 25.3276 385.312 22.7676 394.822 22.2076C404.082 21.6576 412.232 22.9176 419.162 25.9276C426.082 28.9376 432.152 33.0976 437.312 38.3576C442.472 43.6276 446.742 49.6776 450.122 56.4576C453.502 63.2376 456.292 70.1576 458.512 77.1576C460.732 84.1676 462.572 91.0476 464.032 97.7676C465.492 104.498 466.762 110.468 467.852 115.658C470.522 128.308 473.082 141.078 474.732 153.638C476.402 166.328 477.072 179.258 477.022 192.168L476.992 192.188ZM413.822 123.118C413.712 120.818 413.372 117.028 412.782 111.768C412.192 106.508 411.212 101.258 409.812 96.0376C408.412 90.8176 406.392 86.1976 403.752 82.2076C401.102 78.2176 397.672 76.3376 393.492 76.6076C391.172 76.7576 389.052 78.1976 387.152 80.9376C385.252 83.6676 383.642 87.0676 382.342 91.1176C381.032 95.1676 379.952 99.6476 379.082 104.528C378.222 109.418 377.522 114.108 377.002 118.578C376.472 123.058 376.142 127.088 376.002 130.668C375.862 134.248 375.742 136.818 375.662 138.368C388.552 136.238 401.382 133.948 414.222 131.488C414.062 128.148 413.992 126.478 413.832 123.138L413.822 123.118Z" fill="white"/>
<path d="M651.191 42.6776C649.961 49.8776 645.721 55.8675 638.621 60.7475C631.521 65.6275 623.221 69.7276 613.861 73.1676C604.521 76.5976 594.641 79.5475 584.951 81.8075C575.101 84.1075 566.611 86.1976 559.511 87.8576C559.141 91.8776 558.641 95.9876 558.031 100.168C557.421 104.358 556.691 108.538 555.861 112.708C563.321 110.298 571.711 108.238 581.051 106.598C590.381 104.958 599.181 104.728 607.321 105.868C613.881 106.788 619.081 108.738 622.891 111.668C626.701 114.588 628.121 118.918 627.201 124.608C626.191 130.868 622.671 136.038 616.781 140.188C610.881 144.338 604.091 147.808 596.441 150.648C588.791 153.498 580.951 155.808 572.931 157.618C564.901 159.428 558.161 160.888 552.681 161.928C552.101 168.248 551.411 174.508 550.631 180.708C549.851 186.908 548.971 193.058 548.001 199.148C547.521 202.188 546.811 205.988 545.891 210.538C544.971 215.088 543.561 219.448 541.691 223.628C539.821 227.808 537.361 231.358 534.341 234.298C531.321 237.238 527.661 238.548 523.331 238.258C519.191 237.978 515.771 235.798 513.021 231.698C510.271 227.598 507.971 222.428 506.151 216.188C504.331 209.948 502.891 202.998 501.871 195.358C500.851 187.718 500.101 180.228 499.641 172.908C499.181 165.588 499.011 158.838 499.131 152.688C499.251 146.538 499.371 141.828 499.501 138.558C499.591 136.068 499.791 132.358 500.081 127.468C500.371 122.578 500.691 117.148 501.031 111.198C501.371 105.258 501.831 99.0175 502.421 92.4975C503.011 85.9875 503.661 79.7976 504.361 73.9576C505.061 68.1176 505.911 62.9576 506.921 58.4776C507.931 54.0076 509.081 50.7276 510.371 48.6676C513.171 44.5576 519.691 40.6776 529.881 37.1376C541.051 33.2576 552.821 30.6476 564.241 28.7776C576.351 26.7976 588.951 25.6276 601.361 24.9576C613.301 24.3076 622.651 24.7376 628.991 25.6776C631.911 26.1176 634.751 26.6976 637.511 27.4176C640.261 28.1376 642.781 29.1776 645.051 30.5276C647.321 31.8676 649.041 33.5276 650.201 35.4776C651.361 37.4276 651.691 39.8276 651.201 42.6676L651.191 42.6776Z" fill="white"/>
<path d="M757.814 236.358C756.684 239.828 754.574 242.958 751.554 245.548C748.644 248.028 742.764 250.188 734.234 252.218C725.694 254.238 716.494 255.898 706.724 257.308C697.514 258.638 688.154 259.748 678.864 260.498C670.084 261.198 663.794 261.218 659.924 260.358C657.214 259.748 654.154 258.438 650.734 256.438C647.304 254.428 643.924 252.118 640.594 249.498C637.254 246.878 634.294 244.048 631.694 241.028C629.104 237.998 627.294 235.228 626.314 232.708C625.754 231.248 625.484 228.458 625.484 224.358C625.484 220.258 625.694 215.508 626.114 210.128C626.534 204.738 627.054 199.018 627.674 192.988C628.294 186.948 628.914 181.208 629.524 175.748C630.144 170.298 630.744 165.478 631.354 161.288C631.964 157.108 632.434 154.068 632.754 152.168C633.954 145.158 635.644 137.128 637.734 128.158C639.824 119.158 642.554 109.988 645.704 101.308C648.924 92.4478 652.834 84.0278 657.514 76.1778C662.194 68.3378 667.824 62.0078 674.424 57.2178C676.414 55.8478 680.094 54.6978 685.484 53.8378C690.864 52.9778 697.144 52.4278 704.324 52.2478C711.494 52.0678 719.214 52.1678 727.454 52.5878C735.694 53.0078 743.604 53.6778 751.154 54.5878C758.704 55.4978 765.554 56.4878 771.694 57.5378C777.834 58.5878 782.454 59.5978 785.544 60.5178C789.114 61.5778 792.324 63.2078 795.154 65.3878C797.984 67.5678 800.204 70.0278 801.804 72.7478C803.404 75.4678 804.444 78.2778 804.934 81.1578C805.424 84.0378 805.214 86.8578 804.334 89.5978C803.564 91.9778 802.504 93.8578 801.174 95.2378C799.834 96.6178 797.994 98.2378 795.784 99.5678C792.944 101.278 787.014 102.518 778.694 103.608C770.374 104.698 761.494 105.648 752.054 106.508C742.624 107.368 733.664 108.128 725.184 108.758C716.704 109.388 708.724 109.328 707.334 110.318C705.454 111.658 703.434 118.538 701.394 122.698C699.364 126.858 697.604 131.138 696.124 135.538C703.654 134.128 712.074 133.188 721.384 132.788C730.684 132.388 739.264 133.338 747.004 135.498C759.534 138.998 768.824 148.118 764.584 161.718C763.614 164.828 762.074 167.388 759.954 169.348C757.834 171.318 755.374 172.878 752.594 174.048C749.804 175.218 746.784 176.078 743.514 176.628C740.244 177.178 737.044 177.718 733.934 178.238C726.264 179.478 718.454 180.308 710.474 180.738C702.484 181.168 694.554 181.648 686.664 182.178C685.894 183.578 685.094 185.118 684.264 186.798C683.434 188.478 682.824 190.168 682.434 191.848C681.824 194.468 681.434 197.148 681.234 199.858C681.044 202.578 680.834 205.288 680.644 208.008C683.274 207.838 687.504 207.538 693.354 207.198C699.204 206.858 705.324 206.638 711.734 206.548C718.134 206.458 724.294 206.618 730.194 206.998C736.084 207.378 740.384 208.008 743.054 208.808C746.134 209.728 748.834 211.208 751.124 213.228C753.414 215.238 755.164 217.508 756.384 220.018C757.604 222.518 758.354 225.238 758.634 228.158C758.914 231.078 758.634 233.818 757.804 236.378L757.814 236.358ZM787.764 15.1678C787.174 17.2078 785.864 18.9678 783.834 20.4878C781.804 22.0078 779.504 23.3078 776.954 24.3778C774.404 25.4578 771.704 26.3578 768.884 27.0778C766.054 27.7978 763.494 28.4878 761.264 29.0478C759.324 29.5378 757.124 30.0878 754.734 30.7478C752.344 31.4178 749.854 31.9578 747.284 32.3878C744.704 32.8178 742.174 33.1278 739.684 33.2878C737.184 33.4578 734.854 33.2878 732.664 32.7478C730.714 32.2778 729.114 31.4478 727.854 30.2578C726.594 29.0678 726.154 27.6378 726.554 25.9478C727.214 23.1378 729.424 20.0578 733.224 16.7178C737.024 13.3778 741.504 10.3178 746.694 7.54776C751.874 4.78776 757.204 2.66777 762.674 1.22777C768.134 -0.222232 772.894 -0.382242 776.904 0.717758C780.414 1.67776 783.314 3.64777 785.574 6.58777C787.834 9.52777 788.554 12.3878 787.764 15.1578V15.1678Z" fill="white"/>
<path d="M162.811 108.968C162.741 109.268 162.661 109.448 162.711 109.638C162.861 109.888 164.411 106.938 166.541 103.348C171.751 94.6075 180.881 79.9976 189.631 73.1776C194.081 69.0676 201.181 70.0975 204.341 64.9975C205.351 62.8675 204.941 60.5875 202.961 60.4375C184.171 61.1775 168.341 90.6775 162.841 108.848L162.811 108.958V108.968Z" fill="white"/>
<path d="M341.694 84.3679C341.624 84.6679 341.544 84.8479 341.594 85.0379C341.744 85.2879 343.294 82.3379 345.424 78.7479C350.634 70.0079 359.764 55.3979 368.514 48.5779C372.964 44.4679 380.064 45.4979 383.224 40.3979C384.234 38.2679 383.824 35.9879 381.844 35.8379C363.054 36.5779 347.224 66.0779 341.724 84.2479L341.694 84.3579V84.3679Z" fill="white"/>
<path d="M512.099 102.679C512.129 102.989 512.119 103.179 512.229 103.349C514.139 95.8185 516.449 82.7085 520.109 73.0385C521.909 67.9885 523.989 63.3285 526.339 59.9585C528.959 55.8185 533.309 54.2185 536.289 50.8385C537.109 49.8185 537.589 48.7385 537.739 47.7285C538.019 45.3585 536.809 43.3585 534.869 43.8585C516.759 50.6685 511.349 83.7185 512.089 102.559V102.679H512.099Z" fill="white"/>
<path d="M656.718 110.908C656.678 111.208 656.618 111.398 656.688 111.588C656.868 111.818 658.098 108.718 659.848 104.938C664.138 95.6978 671.719 80.2178 679.739 72.5378C683.759 67.9878 690.958 68.2678 693.598 62.8678C694.388 60.6378 693.719 58.4179 691.729 58.4879C672.859 61.2279 660.219 92.5078 656.729 110.808L656.708 110.928L656.718 110.908Z" fill="white"/>
<path d="M74.041 238.598C74.551 239.968 74.661 241.458 74.361 243.018C74.071 244.518 72.781 246.638 70.661 249.398C68.541 252.158 66.161 254.968 63.551 257.868C60.941 260.768 58.431 263.458 55.991 265.928C53.551 268.398 51.701 270.028 50.331 270.768C49.371 271.288 48.131 271.688 46.591 271.978C45.051 272.268 43.451 272.468 41.771 272.568C40.091 272.668 38.471 272.618 36.891 272.408C35.321 272.198 34.041 271.868 33.081 271.388C32.521 271.108 31.691 270.358 30.591 269.148C29.491 267.938 28.271 266.488 26.951 264.788C25.621 263.088 24.241 261.268 22.791 259.328C21.351 257.388 19.981 255.528 18.691 253.768C17.401 251.998 16.281 250.418 15.331 249.028C14.381 247.638 13.701 246.618 13.281 245.968C11.751 243.588 10.081 240.778 8.30096 237.558C6.51096 234.338 4.90096 230.978 3.49096 227.468C2.08096 223.968 1.04096 220.408 0.410959 216.778C-0.219041 213.158 -0.129041 209.708 0.710959 206.438C0.980959 205.468 1.87096 204.098 3.39096 202.328C4.91096 200.568 6.82096 198.648 9.13096 196.598C11.441 194.548 14.011 192.458 16.861 190.328C19.701 188.198 22.511 186.258 25.281 184.498C28.041 182.738 30.601 181.208 32.941 179.898C35.281 178.588 37.101 177.678 38.381 177.148C39.861 176.538 41.371 176.198 42.891 176.128C44.411 176.058 45.791 176.238 47.041 176.668C48.281 177.098 49.351 177.688 50.261 178.458C51.161 179.218 51.811 180.148 52.221 181.218C52.571 182.148 52.691 183.008 52.601 183.778C52.501 184.548 52.301 185.528 51.901 186.498C51.391 187.758 49.721 189.668 47.241 192.158C44.751 194.648 42.061 197.268 39.191 200.008C36.311 202.758 33.591 205.368 30.991 207.828C28.401 210.288 25.801 212.408 25.621 213.098C25.391 213.988 26.541 216.618 26.991 218.408C27.441 220.208 28.011 221.958 28.701 223.678C30.721 221.228 33.171 218.688 36.061 216.098C38.951 213.508 41.971 211.528 45.051 210.178C51.301 207.428 55.481 208.718 57.471 213.698C57.951 214.908 58.101 216.088 57.911 217.238C57.721 218.388 57.331 219.498 56.741 220.568C56.141 221.638 55.391 222.678 54.491 223.688C53.591 224.698 52.711 225.688 51.851 226.648C49.731 229.008 47.481 231.288 45.081 233.508C42.681 235.728 40.321 237.958 38.011 240.218C38.141 240.848 38.291 241.518 38.481 242.248C38.661 242.978 38.921 243.638 39.241 244.248C39.741 245.198 40.321 246.108 40.971 246.978C41.621 247.848 42.271 248.718 42.921 249.588C43.681 248.848 44.901 247.648 46.621 246.018C48.331 244.388 50.171 242.728 52.141 241.048C54.111 239.368 56.071 237.838 58.021 236.448C59.961 235.058 61.481 234.168 62.521 233.738C63.721 233.248 64.951 233.018 66.171 233.068C67.401 233.118 68.521 233.378 69.531 233.858C70.541 234.338 71.451 234.998 72.261 235.838C73.071 236.678 73.661 237.608 74.041 238.608V238.598Z" fill="white"/>
<path d="M138.218 225.928C138.408 227.838 137.738 229.708 136.248 231.568C134.768 233.428 132.808 235.198 130.408 236.918C128.008 238.638 125.338 240.268 122.398 241.828C119.458 243.388 116.588 244.848 113.768 246.188C110.948 247.538 108.298 248.728 105.798 249.748C103.298 250.768 101.328 251.508 99.8375 251.928C98.4275 252.328 96.8875 252.628 95.2175 252.848C93.5475 253.068 92.0575 252.918 90.7475 252.378C90.0175 252.128 89.1775 251.318 88.2275 249.938C87.2775 248.558 86.2375 246.878 85.1175 244.918C83.9975 242.948 82.8575 240.808 81.7175 238.488C80.5775 236.168 79.5075 233.878 78.5075 231.628C77.5075 229.378 76.6075 227.298 75.8075 225.388C75.0075 223.478 74.4175 221.978 74.0375 220.888C73.4075 219.078 72.7175 216.868 71.9575 214.248C71.1975 211.638 70.4475 208.808 69.7075 205.788C68.9675 202.758 68.3075 199.648 67.7375 196.438C67.1675 193.238 66.7375 190.168 66.4475 187.228C66.1575 184.298 66.1275 181.578 66.3475 179.098C66.5675 176.608 67.0475 174.568 67.7575 172.978C69.0375 170.408 71.1775 168.678 74.1275 167.828C76.1575 167.248 78.0375 167.268 79.7275 167.878C81.4175 168.498 82.9075 169.498 84.1675 170.868C85.4375 172.238 86.5375 173.868 87.4775 175.718C88.4175 177.578 89.2175 179.448 89.8975 181.338C90.5675 183.228 91.1075 184.988 91.5075 186.628C91.9075 188.268 92.2275 189.568 92.4675 190.538C93.8975 196.338 95.1475 202.128 96.2475 207.898C97.3475 213.668 98.6375 219.448 100.088 225.248C100.518 226.988 100.738 227.858 101.178 229.598C104.588 227.638 108.418 225.728 112.658 223.898C116.898 222.078 121.108 220.868 125.188 220.268C126.628 220.058 128.118 219.928 129.628 219.878C131.138 219.838 132.498 219.998 133.708 220.358C134.918 220.718 135.928 221.348 136.748 222.218C137.568 223.098 138.048 224.338 138.208 225.938L138.218 225.928Z" fill="white"/>
<path d="M9.8187 229.827C10.2487 230.387 9.9687 229.407 9.2587 227.237C8.0187 223.297 6.0387 216.777 6.4487 212.217C6.6287 209.497 7.9987 206.967 7.4387 204.447C7.1087 203.427 6.0687 203.437 5.5487 204.127C0.908707 210.727 5.5987 223.357 9.7587 229.747L9.8187 229.827Z" fill="white"/>
<path d="M71.0848 196.508C71.4148 197.138 71.3548 196.118 71.1348 193.858C70.7748 189.728 70.3148 182.918 71.9048 178.568C72.6848 176.468 73.8448 174.898 74.5948 172.958C75.2248 171.648 75.1048 169.738 73.4448 170.218C66.2848 174.998 68.0248 189.188 71.0348 196.418L71.0748 196.498L71.0848 196.508Z" fill="white"/>
<path d="M853.838 222.829C853.668 224.129 852.938 225.269 851.688 226.269C850.428 227.269 848.868 228.139 847.018 228.889C845.158 229.639 843.138 230.279 840.938 230.809C838.738 231.339 836.588 231.809 834.478 232.189C832.368 232.579 830.398 232.879 828.558 233.089C826.718 233.299 825.268 233.419 824.208 233.409C823.198 233.409 822.118 233.309 820.978 233.129C819.828 232.949 818.878 232.559 818.118 231.949C817.678 231.639 817.298 230.949 816.948 229.859C816.598 228.769 816.248 227.469 815.908 225.959C815.568 224.449 815.248 222.829 814.978 221.079C814.698 219.339 814.458 217.629 814.258 215.959C814.058 214.289 813.888 212.749 813.758 211.349C813.618 209.939 813.538 208.849 813.508 208.059C813.458 206.749 813.448 205.169 813.478 203.309C813.508 201.449 813.578 199.459 813.688 197.339C813.798 195.219 813.988 193.049 814.238 190.849C814.488 188.649 814.798 186.559 815.168 184.589C815.538 182.619 816.018 180.839 816.608 179.259C817.198 177.679 817.858 176.439 818.578 175.539C819.828 174.109 821.428 173.389 823.378 173.399C824.718 173.399 825.858 173.769 826.778 174.489C827.698 175.209 828.428 176.139 828.968 177.279C829.508 178.419 829.898 179.679 830.148 181.079C830.408 182.469 830.578 183.849 830.658 185.209C830.748 186.569 830.768 187.829 830.738 188.979C830.708 190.129 830.678 191.039 830.658 191.719C830.538 195.799 830.298 199.829 829.978 203.819C829.648 207.809 829.438 211.849 829.328 215.919C829.298 217.139 829.278 217.749 829.238 218.979C831.798 218.319 834.608 217.739 837.648 217.279C840.698 216.809 843.598 216.719 846.328 216.989C847.298 217.079 848.268 217.239 849.248 217.449C850.228 217.659 851.078 217.979 851.798 218.409C852.518 218.839 853.078 219.409 853.468 220.119C853.858 220.829 853.988 221.729 853.838 222.819V222.829Z" fill="white"/>
<path d="M871.898 239.597C868.758 238.907 866.178 237.587 864.108 235.587C862.038 233.587 860.408 231.147 859.228 228.237C858.048 225.327 857.278 222.067 856.958 218.427C856.638 214.787 856.708 211.027 857.238 207.147C857.728 203.517 858.688 199.907 860.168 196.307C861.648 192.717 863.618 189.567 866.128 186.887C868.638 184.217 871.668 182.197 875.208 180.887C878.748 179.577 882.788 179.407 887.208 180.417C891.508 181.397 894.868 183.217 897.228 185.777C899.588 188.337 901.168 191.297 901.968 194.607C902.768 197.927 902.958 201.447 902.558 205.147C902.158 208.857 901.388 212.447 900.298 215.937C899.078 219.827 897.478 223.367 895.568 226.577C893.648 229.787 891.468 232.467 889.038 234.647C886.608 236.827 883.968 238.367 881.108 239.297C878.248 240.227 875.208 240.307 871.918 239.587L871.898 239.597ZM882.428 197.117C881.268 196.857 880.178 197.017 879.198 197.617C878.208 198.207 877.308 199.077 876.508 200.217C875.708 201.357 875.028 202.687 874.478 204.207C873.928 205.727 873.498 207.277 873.178 208.867C872.818 210.667 872.598 212.487 872.498 214.327C872.398 216.177 872.458 217.867 872.668 219.397C872.878 220.937 873.268 222.217 873.828 223.247C874.388 224.277 875.188 224.907 876.228 225.137C877.438 225.407 878.518 225.077 879.498 224.127C880.478 223.177 881.378 221.967 882.178 220.497C882.978 219.027 883.668 217.477 884.228 215.837C884.788 214.197 885.208 212.827 885.488 211.707C885.828 210.337 886.088 208.867 886.258 207.297C886.428 205.727 886.438 204.227 886.278 202.817C886.118 201.407 885.738 200.167 885.158 199.117C884.578 198.067 883.658 197.397 882.438 197.117H882.428Z" fill="white"/>
<path d="M943.952 203.527C943.442 204.617 942.562 205.357 941.332 205.767C940.092 206.177 938.732 206.347 937.342 206.367C936.062 206.387 934.692 206.497 933.302 206.607C931.912 206.717 930.592 206.957 929.332 207.307C928.072 207.657 926.962 208.177 926.002 208.867C925.042 209.547 924.332 210.477 923.862 211.637C923.452 212.657 923.372 213.697 923.612 214.747C923.852 215.807 924.222 216.897 924.712 218.037C925.202 219.177 925.762 220.377 926.382 221.637C927.002 222.897 927.482 224.217 927.822 225.597C928.162 226.977 928.312 228.437 928.272 229.967C928.232 231.497 927.812 233.117 927.032 234.827C926.492 236.017 925.602 237.227 924.372 238.487C923.142 239.737 921.732 240.927 920.132 242.047C918.532 243.167 916.812 244.187 914.962 245.107C913.112 246.027 911.272 246.787 909.442 247.367C907.612 247.957 905.822 248.327 904.062 248.467C902.302 248.607 900.742 248.437 899.352 247.947C897.812 247.397 896.582 246.507 895.662 245.257C894.742 244.007 894.532 242.547 895.082 240.857C895.452 239.717 896.082 238.747 896.972 237.967C897.862 237.187 898.882 236.497 900.022 235.887C901.162 235.287 902.402 234.737 903.722 234.267C905.052 233.797 906.292 233.297 907.452 232.777C908.612 232.257 909.652 231.657 910.592 230.977C911.522 230.297 912.192 229.447 912.582 228.417C913.122 226.997 913.122 225.337 912.552 223.417C911.972 221.497 911.272 219.487 910.422 217.377C909.572 215.267 908.832 213.177 908.212 211.087C907.592 208.997 907.552 207.087 908.122 205.347C908.832 203.217 910.252 201.187 912.462 199.317C914.662 197.447 917.222 195.927 920.162 194.797C923.092 193.667 926.232 193.017 929.542 192.857C932.852 192.707 935.902 193.227 938.642 194.407C940.822 195.347 942.452 196.677 943.532 198.377C944.612 200.077 944.732 201.777 943.942 203.487L943.952 203.527Z" fill="white"/>
<path d="M815.902 195.448C815.992 195.928 816.142 195.228 816.412 193.618C816.942 190.528 817.932 185.298 819.762 182.328C820.772 180.698 821.722 179.868 822.672 178.318C823.242 177.518 823.402 176.138 822.202 176.348C816.742 179.088 815.312 189.568 815.882 195.358L815.902 195.448Z" fill="white"/>
<path d="M863.703 198.727C863.603 199.207 864.003 198.607 864.843 197.207C865.833 195.587 867.293 193.267 868.883 191.257C870.863 188.407 873.523 187.027 876.133 185.297C877.073 184.707 877.623 183.227 876.183 183.297C870.583 184.147 865.313 193.217 863.733 198.637L863.713 198.727H863.703Z" fill="white"/>
<path d="M911.724 205.167C911.444 205.567 912.044 205.177 913.364 204.227C916.854 201.687 922.264 198.147 926.914 198.117C927.714 197.987 928.954 197.817 929.514 197.307C930.074 196.827 929.804 196.167 929.214 195.987C923.734 194.417 915.354 200.737 911.774 205.087L911.724 205.157V205.167Z" fill="white"/>
<path d="M871.142 129.198C870.192 133.698 868.142 137.788 865.222 141.558C862.292 145.328 858.882 148.548 855.022 151.308C851.162 154.068 847.032 156.208 842.552 157.818C838.072 159.428 833.562 160.218 828.832 160.218C828.772 160.218 828.732 160.218 828.672 160.218C827.712 160.218 826.922 159.798 826.292 158.948C825.662 158.098 825.112 157.018 824.642 155.728C824.172 154.438 823.792 152.978 823.522 151.368C823.252 149.758 823.022 148.178 822.862 146.638C822.692 145.098 822.592 143.718 822.542 142.488C822.502 141.258 822.472 140.338 822.442 139.708C822.382 137.928 822.352 136.168 822.352 134.418C822.352 132.668 822.452 130.838 822.452 129.118C822.452 128.568 822.452 127.698 822.512 126.568C822.572 125.438 822.642 124.168 822.732 122.758C822.822 121.348 822.942 119.858 823.092 118.318C823.252 116.768 823.432 115.328 823.632 113.988C823.832 112.648 824.052 111.468 824.272 110.448C824.492 109.428 824.772 108.728 825.112 108.348C825.992 107.188 827.392 106.148 829.292 105.258C831.202 104.368 833.282 103.668 835.542 103.158C837.802 102.648 840.102 102.318 842.442 102.168C844.782 102.018 846.812 102.028 848.522 102.178C853.232 102.588 857.232 103.718 860.462 105.468C863.682 107.218 866.212 109.398 868.042 111.928C869.872 114.458 870.992 117.238 871.442 120.208C871.892 123.178 871.772 126.178 871.132 129.198H871.142ZM854.932 128.738C855.082 127.598 854.982 126.398 854.622 125.138C854.262 123.878 853.662 122.698 852.842 121.608C852.012 120.518 850.942 119.588 849.652 118.858C848.362 118.128 846.872 117.688 845.212 117.568C843.812 117.458 842.362 117.628 840.872 118.068C840.532 118.208 840.202 118.678 839.902 119.468C839.592 120.268 839.332 121.238 839.112 122.368C838.892 123.508 838.692 124.758 838.492 126.108C838.302 127.458 838.162 128.748 838.072 129.978C837.982 131.198 837.902 132.288 837.832 133.228C837.762 134.168 837.712 134.788 837.702 135.108C837.682 135.628 837.642 136.398 837.602 137.418C837.562 138.438 837.552 139.448 837.602 140.438C837.642 141.438 837.712 142.298 837.792 143.038C837.872 143.778 838.062 144.148 838.352 144.168C840.092 144.258 841.852 143.758 843.682 142.668C845.502 141.578 847.222 140.228 848.842 138.618C850.462 136.998 851.842 135.298 852.972 133.488C854.102 131.678 854.772 130.108 854.942 128.758L854.932 128.738Z" fill="white"/>
<path d="M905.282 164.679C904.862 165.579 904.192 166.349 903.292 166.949C902.422 167.529 900.772 167.919 898.422 168.209C896.072 168.499 893.562 168.689 890.912 168.809C888.252 168.929 885.762 168.999 883.402 168.989C881.042 168.989 879.382 168.859 878.372 168.549C877.662 168.329 876.882 167.919 876.012 167.309C875.142 166.699 874.292 166.009 873.452 165.239C872.612 164.469 871.872 163.649 871.232 162.789C870.592 161.929 870.152 161.149 869.932 160.449C869.802 160.039 869.782 159.279 869.852 158.169C869.922 157.059 870.052 155.769 870.252 154.319C870.452 152.859 870.682 151.319 870.952 149.689C871.212 148.059 871.472 146.509 871.722 145.039C871.972 143.569 872.212 142.269 872.442 141.139C872.672 140.009 872.852 139.189 872.962 138.689C873.402 136.809 873.972 134.659 874.702 132.249C875.422 129.839 876.302 127.459 877.332 125.099C878.362 122.739 879.602 120.539 881.052 118.499C882.502 116.459 884.212 114.859 886.192 113.709C886.782 113.379 887.862 113.159 889.432 113.049C891.002 112.949 892.822 112.959 894.892 113.099C896.962 113.239 899.182 113.489 901.552 113.849C903.922 114.209 906.182 114.639 908.332 115.139C910.482 115.639 912.432 116.139 914.172 116.649C915.912 117.149 917.212 117.599 918.082 117.969C919.082 118.389 919.962 118.959 920.712 119.659C921.472 120.359 922.042 121.119 922.422 121.929C922.802 122.729 923.032 123.539 923.082 124.349C923.142 125.149 923.002 125.909 922.672 126.619C922.382 127.239 922.032 127.709 921.612 128.029C921.192 128.349 920.622 128.719 919.962 128.999C919.112 129.359 917.392 129.459 915.002 129.449C912.612 129.449 910.072 129.389 907.382 129.309C904.692 129.229 902.142 129.159 899.722 129.079C897.312 128.999 895.052 128.759 894.642 128.999C894.102 129.309 893.372 131.129 892.712 132.199C892.052 133.279 891.472 134.399 890.972 135.549C893.112 135.359 895.492 135.329 898.122 135.499C900.742 135.659 903.132 136.179 905.242 137.019C909.532 138.729 910.912 141.379 909.442 144.729C909.082 145.539 908.582 146.179 907.932 146.639C907.292 147.099 906.562 147.439 905.762 147.669C904.962 147.899 904.092 148.029 903.182 148.079C902.262 148.129 901.362 148.169 900.492 148.219C898.342 148.319 896.162 148.319 893.952 148.219C891.742 148.119 889.542 148.039 887.362 147.989C887.122 148.349 886.862 148.749 886.602 149.189C886.332 149.629 886.132 150.069 885.992 150.519C885.772 151.219 885.602 151.929 885.492 152.659C885.382 153.389 885.262 154.119 885.152 154.859C885.872 154.869 887.032 154.889 888.632 154.949C890.232 154.999 891.912 155.099 893.662 155.259C895.412 155.409 897.092 155.629 898.692 155.909C900.292 156.189 901.442 156.489 902.152 156.799C902.962 157.149 903.652 157.629 904.222 158.249C904.782 158.869 905.192 159.539 905.442 160.259C905.692 160.979 905.812 161.739 905.792 162.529C905.772 163.329 905.602 164.059 905.292 164.719L905.282 164.679Z" fill="white"/>
<path d="M825.394 126.217C825.484 126.697 825.634 125.997 825.904 124.387C826.434 121.297 827.424 116.067 829.254 113.097C830.264 111.467 831.214 110.637 832.164 109.087C832.734 108.287 832.894 106.907 831.694 107.117C826.234 109.857 824.804 120.337 825.374 126.127L825.394 126.217Z" fill="white"/>
<path d="M880.148 134.038C880.168 134.528 880.408 133.848 880.898 132.288C882.158 128.108 884.408 121.978 888.108 119.098C888.678 118.498 889.568 117.588 889.708 116.848C889.728 114.528 886.268 117.198 884.648 119.598C881.758 123.708 880.518 129.138 880.148 133.948V134.038Z" fill="white"/>
</g>
<defs>
<clipPath id="clip0_329_2">
<rect width="1033" height="649" fill="white"/>
</clipPath>
</defs>
</svg>
